<?xml version="1.0" encoding="UTF-8" standalone="no"?>
<!-- Generator: Adobe Illustrator 17.0.2, SVG Export Plug-In . SVG Version: 6.00 Build 0)  -->
<!DOCTYPE svg  PUBLIC '-//W3C//DTD SVG 1.1//EN'  'http://www.w3.org/Graphics/SVG/1.1/DTD/svg11.dtd'>
<svg id="Comp" style="enable-background:new 0 0 400 130" xmlns="http://www.w3.org/2000/svg" xml:space="preserve" height="130px" viewBox="0 0 400 130" width="400px" version="1.1" y="0px" x="0px" xmlns:xlink="http://www.w3.org/1999/xlink">
	<path d="m130 65c0 35.897-29.102 64.998-64.998 64.998s-65.002-29.1-65.002-65c0-35.898 29.102-64.998 64.998-64.998s65.002 29.1 65.002 64.998zm-70.661 23.985c-8.258 0.015-22.672 0.156-28.399 1.039-3.094 0.489-2.854 2.54-2.946 4.232v0.02 0.009c0.092 1.692-0.148 3.741 2.946 4.233 7.629 1.174 30.649 1.038 34.039 1.038h0.026c3.39 0 26.41 0.136 34.037-1.038 3.096-0.491 2.868-2.541 2.957-4.233-0.094-1.696 0.155-3.768-2.957-4.261-7.626-1.176-30.647-1.039-34.037-1.039-0.838 0-2.914-0.005-5.667 0zm0-58.541c-8.259 0.013-22.672 0.154-28.399 1.037-3.094 0.491-2.854 2.54-2.946 4.232v0.02 0.011c0.092 1.691-0.148 3.741 2.946 4.232 7.629 1.176 30.649 1.039 34.039 1.039h0.026c3.39 0 26.41 0.136 34.037-1.039 3.096-0.49 2.868-2.54 2.957-4.232-0.094-1.697 0.155-3.77-2.957-4.262-7.626-1.175-30.647-1.039-34.037-1.037-0.838-0.001-2.914-0.007-5.667-0.001zm0 39.027c-8.259 0.014-22.672 0.155-28.399 1.037-3.094 0.491-2.854 2.542-2.946 4.234v0.018 0.012c0.092 1.691-0.148 3.741 2.946 4.233 7.629 1.173 30.649 1.038 34.039 1.037h0.026c3.39 0.001 26.41 0.136 34.037-1.037 3.096-0.491 2.868-2.541 2.957-4.233-0.094-1.696 0.155-3.768-2.957-4.263-7.626-1.174-30.647-1.037-34.037-1.037-0.838-0.001-2.914-0.005-5.667-0.001zm0-19.513c-8.259 0.014-22.672 0.155-28.399 1.037-3.094 0.491-2.854 2.54-2.946 4.232v0.02 0.012c0.092 1.69-0.148 3.741 2.946 4.232 7.629 1.174 30.649 1.038 34.039 1.038h0.026c3.39 0 26.41 0.136 34.037-1.038 3.096-0.49 2.868-2.541 2.957-4.232-0.094-1.698 0.155-3.771-2.957-4.263-7.626-1.174-30.647-1.037-34.037-1.037-0.838-0.001-2.914-0.007-5.667-0.001z" fill="#DD4814"/>
	<g fill="#333">
		<path d="m185.08 89.459c-0.642-1.541-1.493-3.498-2.551-5.874-1.06-2.374-2.2-4.943-3.418-7.704-1.22-2.76-2.52-5.6-3.9-8.522-1.382-2.92-2.682-5.681-3.9-8.281-1.22-2.6-2.36-4.926-3.418-6.981-1.06-2.054-1.911-3.626-2.553-4.718-0.705 7.575-1.284 15.777-1.733 24.602-0.449 8.828-0.835 17.735-1.154 26.722h-9.15c0.256-5.776 0.545-11.603 0.867-17.477 0.32-5.875 0.689-11.652 1.107-17.333 0.416-5.681 0.867-11.219 1.347-16.61 0.482-5.393 1.013-10.497 1.589-15.311h8.186c1.733 2.826 3.595 6.163 5.586 10.015 1.989 3.852 3.978 7.881 5.969 12.085 1.989 4.206 3.914 8.41 5.779 12.615 1.86 4.205 3.562 8.04 5.104 11.507 1.54-3.466 3.24-7.302 5.101-11.507 1.862-4.205 3.787-8.409 5.779-12.615 1.989-4.203 3.98-8.233 5.971-12.085 1.989-3.852 3.851-7.189 5.583-10.015h8.186c2.182 21.507 3.818 43.75 4.911 66.732h-9.147c-0.322-8.986-0.708-17.894-1.157-26.722-0.449-8.825-1.027-17.028-1.733-24.602-0.642 1.092-1.493 2.665-2.553 4.718-1.058 2.055-2.198 4.381-3.418 6.981s-2.52 5.361-3.9 8.281c-1.38 2.922-2.68 5.762-3.898 8.522-1.222 2.761-2.36 5.33-3.421 7.704-1.058 2.376-1.909 4.333-2.551 5.874h-7.53z"/>
		<path d="m281.37 98.703c-1.093-2.889-2.118-5.729-3.082-8.522-0.962-2.793-1.958-5.633-2.983-8.522h-30.237l-6.07 17.044h-9.726c2.567-7.061 4.975-13.593 7.222-19.596 2.245-6.002 4.443-11.699 6.594-17.092 2.151-5.392 4.286-10.544 6.404-15.455s4.333-9.774 6.646-14.589h8.569c2.311 4.815 4.525 9.678 6.644 14.589 2.118 4.911 4.253 10.063 6.404 15.455 2.151 5.393 4.349 11.09 6.597 17.092 2.245 6.003 4.652 12.535 7.222 19.596h-10.19zm-8.76-24.747c-2.057-5.586-4.093-10.993-6.115-16.226-2.022-5.232-4.126-10.255-6.307-15.069-2.247 4.815-4.382 9.837-6.404 15.069-2.022 5.233-4.029 10.64-6.018 16.226h24.84z"/>
		<path d="m343 98.703c-1.093-2.889-2.118-5.729-3.082-8.522-0.962-2.793-1.958-5.633-2.983-8.522h-30.237l-6.065 17.044h-9.726c2.567-7.061 4.975-13.593 7.222-19.596 2.245-6.002 4.443-11.699 6.594-17.092 2.151-5.392 4.286-10.544 6.404-15.455s4.333-9.774 6.646-14.589h8.569c2.311 4.815 4.526 9.678 6.644 14.589s4.253 10.063 6.404 15.455c2.151 5.393 4.349 11.09 6.597 17.092 2.245 6.003 4.652 12.535 7.222 19.596h-10.2zm-8.77-24.747c-2.057-5.586-4.093-10.993-6.115-16.226-2.022-5.232-4.126-10.255-6.307-15.069-2.247 4.815-4.382 9.837-6.404 15.069-2.022 5.233-4.029 10.64-6.018 16.226h24.84z"/>
		<path d="m375.54 92.059c9.759 0 14.637-3.338 14.637-10.015 0-2.054-0.433-3.804-1.3-5.248-0.867-1.445-2.038-2.696-3.515-3.756s-3.162-1.974-5.054-2.744c-1.895-0.771-3.9-1.541-6.018-2.311-2.44-0.835-4.751-1.782-6.933-2.841-2.184-1.059-4.079-2.311-5.682-3.756-1.606-1.445-2.875-3.161-3.804-5.152-0.931-1.989-1.396-4.396-1.396-7.222 0-5.841 1.989-10.399 5.971-13.673 3.978-3.275 9.467-4.911 16.466-4.911 4.044 0 7.718 0.433 11.026 1.3 3.305 0.866 5.729 1.814 7.269 2.84l-2.986 7.608c-1.347-0.833-3.355-1.652-6.018-2.456-2.664-0.802-5.762-1.204-9.291-1.204-1.798 0-3.468 0.193-5.007 0.578-1.542 0.384-2.889 0.963-4.046 1.733-1.154 0.77-2.069 1.75-2.743 2.937-0.675 1.188-1.011 2.585-1.011 4.188 0 1.798 0.353 3.308 1.06 4.526 0.705 1.22 1.7 2.297 2.983 3.227 1.284 0.931 2.776 1.781 4.478 2.552 1.7 0.77 3.578 1.54 5.633 2.311 2.889 1.155 5.536 2.311 7.944 3.466 2.407 1.155 4.493 2.537 6.26 4.14 1.763 1.606 3.129 3.515 4.093 5.73 0.962 2.215 1.443 4.896 1.443 8.04 0 5.842-2.135 10.337-6.404 13.48-4.269 3.148-10.288 4.718-18.055 4.718-2.633 0-5.054-0.176-7.269-0.529s-4.189-0.771-5.922-1.251c-1.735-0.482-3.228-0.994-4.478-1.542-1.253-0.543-2.231-1.011-2.936-1.396l2.793-7.703c1.474 0.836 3.721 1.767 6.74 2.793 3.02 1.033 6.72 1.547 11.08 1.547z"/>
	</g>
</svg>
